# xmcd CD database file
#
# Track frame offsets:
#	150
#	15534
#	30637
#	46334
#	66936
#	85267
#	103154
#	117342
#	131267
#	146659
#	156688
#	180302
#
# Disc length: 2587 seconds
#
# Revision: 0
# Processed by: cddbd v1.5.1PL0 Copyright (c) Steve Scherf et al.
# Submitted via: CDex 1.51
#
DISCID=a10a190c
DTITLE=Janis Ian - Miracle Row
DYEAR=1977
DGENRE=Blues
TTITLE0=Party Lights
TTITLE1=I Want To Make You Love Me
TTITLE2=Sunset Of Your Life
TTITLE3=Take To the Sky
TTITLE4=Candlelight
TTITLE5=Let Me Be Lonely
TTITLE6=Slow Dance Romance
TTITLE7=Will You Dance?
TTITLE8=I'll Cry Tonight
TTITLE9=Miracle Row
TTITLE10=Maria
TTITLE11=Will You Dance (Bonus Track)
EXTD=YEAR: 1977
EXTT0=
EXTT1=
EXTT2=
EXTT3=
EXTT4=
EXTT5=
EXTT6=
EXTT7=
EXTT8=
EXTT9=
EXTT10=
EXTT11=
PLAYORDER=
